<mxfile host="app.diagrams.net" agent="Mozilla/5.0 (Windows NT 10.0; Win64; x64) AppleWebKit/537.36 (KHTML, like Gecko) Chrome/138.0.0.0 Safari/537.36" version="28.2.0">
  <diagram name="Page-1" id="tr7avfG-QLFzX0DWE_Pi">
    <mxGraphModel dx="1186" dy="755" grid="1" gridSize="10" guides="1" tooltips="1" connect="1" arrows="1" fold="1" page="1" pageScale="1" pageWidth="827" pageHeight="1169" math="0" shadow="0">
      <root>
        <mxCell id="0" />
        <mxCell id="1" parent="0" />
        <mxCell id="q21tCgvyTeb9YOKEg16n-2" value="" style="swimlane;startSize=0;" parent="1" vertex="1">
          <mxGeometry x="240" y="70" width="773" height="1170" as="geometry" />
        </mxCell>
        <mxCell id="q21tCgvyTeb9YOKEg16n-3" value="&lt;font style=&quot;font-size: 18px;&quot;&gt;logiciel de gestion commerciale&lt;/font&gt;" style="text;html=1;align=center;verticalAlign=middle;resizable=0;points=[];autosize=1;strokeColor=none;fillColor=none;" parent="q21tCgvyTeb9YOKEg16n-2" vertex="1">
          <mxGeometry x="227" y="10" width="270" height="40" as="geometry" />
        </mxCell>
        <mxCell id="q21tCgvyTeb9YOKEg16n-6" value="&lt;font style=&quot;font-size: 14px;&quot;&gt;enregistrer&lt;br/&gt;la commande&lt;/font&gt;" style="ellipse;whiteSpace=wrap;html=1;" parent="q21tCgvyTeb9YOKEg16n-2" vertex="1">
          <mxGeometry x="213" y="200" width="200" height="80" as="geometry" />
        </mxCell>
        <mxCell id="q21tCgvyTeb9YOKEg16n-8" value="&lt;font style=&quot;font-size: 14px;&quot;&gt;enregistrer client&lt;/font&gt;" style="ellipse;whiteSpace=wrap;html=1;" parent="q21tCgvyTeb9YOKEg16n-2" vertex="1">
          <mxGeometry x="67" y="340" width="160" height="80" as="geometry" />
        </mxCell>
        <mxCell id="q21tCgvyTeb9YOKEg16n-11" value="" style="endArrow=block;dashed=1;endFill=0;endSize=12;html=1;rounded=0;entryX=0.075;entryY=0.813;entryDx=0;entryDy=0;entryPerimeter=0;" parent="q21tCgvyTeb9YOKEg16n-2" source="q21tCgvyTeb9YOKEg16n-8" target="q21tCgvyTeb9YOKEg16n-6" edge="1">
          <mxGeometry width="160" relative="1" as="geometry">
            <mxPoint x="50" y="190" as="sourcePoint" />
            <mxPoint x="210" y="190" as="targetPoint" />
          </mxGeometry>
        </mxCell>
        <mxCell id="q21tCgvyTeb9YOKEg16n-10" value="&amp;lt;&amp;lt;extend&amp;gt;&amp;gt;" style="text;html=1;align=center;verticalAlign=middle;resizable=0;points=[];autosize=1;strokeColor=none;fillColor=none;" parent="q21tCgvyTeb9YOKEg16n-2" vertex="1">
          <mxGeometry x="70" y="270" width="90" height="30" as="geometry" />
        </mxCell>
        <mxCell id="q21tCgvyTeb9YOKEg16n-16" value="&lt;span style=&quot;font-size: 14px;&quot;&gt;étudier la commande&lt;/span&gt;" style="ellipse;whiteSpace=wrap;html=1;" parent="q21tCgvyTeb9YOKEg16n-2" vertex="1">
          <mxGeometry x="201.5" y="460" width="210" height="80" as="geometry" />
        </mxCell>
        <mxCell id="q21tCgvyTeb9YOKEg16n-20" value="&lt;font style=&quot;font-size: 14px;&quot;&gt;établir&amp;nbsp;&amp;nbsp;convention&lt;/font&gt;" style="ellipse;whiteSpace=wrap;html=1;" parent="q21tCgvyTeb9YOKEg16n-2" vertex="1">
          <mxGeometry x="67" y="630" width="160" height="80" as="geometry" />
        </mxCell>
        <mxCell id="q21tCgvyTeb9YOKEg16n-22" value="&lt;font style=&quot;font-size: 14px;&quot;&gt;établir&amp;nbsp;&amp;nbsp;marché&lt;/font&gt;" style="ellipse;whiteSpace=wrap;html=1;" parent="q21tCgvyTeb9YOKEg16n-2" vertex="1">
          <mxGeometry x="287" y="630" width="150" height="80" as="geometry" />
        </mxCell>
        <mxCell id="q21tCgvyTeb9YOKEg16n-23" value="" style="endArrow=classic;html=1;rounded=0;exitX=0.5;exitY=0;exitDx=0;exitDy=0;entryX=0.381;entryY=1.025;entryDx=0;entryDy=0;entryPerimeter=0;" parent="q21tCgvyTeb9YOKEg16n-2" source="q21tCgvyTeb9YOKEg16n-20" target="q21tCgvyTeb9YOKEg16n-16" edge="1">
          <mxGeometry width="50" height="50" relative="1" as="geometry">
            <mxPoint x="200" y="610" as="sourcePoint" />
            <mxPoint x="250" y="560" as="targetPoint" />
          </mxGeometry>
        </mxCell>
        <mxCell id="q21tCgvyTeb9YOKEg16n-24" value="" style="endArrow=classic;html=1;rounded=0;exitX=0.5;exitY=0;exitDx=0;exitDy=0;entryX=0.714;entryY=0.938;entryDx=0;entryDy=0;entryPerimeter=0;" parent="q21tCgvyTeb9YOKEg16n-2" source="q21tCgvyTeb9YOKEg16n-22" target="q21tCgvyTeb9YOKEg16n-16" edge="1">
          <mxGeometry width="50" height="50" relative="1" as="geometry">
            <mxPoint x="200" y="610" as="sourcePoint" />
            <mxPoint x="250" y="560" as="targetPoint" />
          </mxGeometry>
        </mxCell>
        <mxCell id="q21tCgvyTeb9YOKEg16n-25" value="&lt;font style=&quot;font-size: 14px;&quot;&gt;établir un of&lt;/font&gt;" style="ellipse;whiteSpace=wrap;html=1;" parent="q21tCgvyTeb9YOKEg16n-2" vertex="1">
          <mxGeometry x="203" y="760" width="210" height="80" as="geometry" />
        </mxCell>
        <mxCell id="q21tCgvyTeb9YOKEg16n-30" value="&lt;font style=&quot;font-size: 14px;&quot;&gt;établir un op&lt;/font&gt;" style="ellipse;whiteSpace=wrap;html=1;" parent="q21tCgvyTeb9YOKEg16n-2" vertex="1">
          <mxGeometry x="203" y="1050" width="210" height="80" as="geometry" />
        </mxCell>
        <mxCell id="q21tCgvyTeb9YOKEg16n-38" value="&lt;font style=&quot;font-size: 14px;&quot;&gt;éditer des états statistiques&lt;/font&gt;" style="ellipse;whiteSpace=wrap;html=1;" parent="q21tCgvyTeb9YOKEg16n-2" vertex="1">
          <mxGeometry x="213" y="70" width="200" height="80" as="geometry" />
        </mxCell>
        <mxCell id="q21tCgvyTeb9YOKEg16n-43" value="&lt;font style=&quot;font-size: 14px;&quot;&gt;importer&amp;nbsp;l’état de production&lt;/font&gt;" style="ellipse;whiteSpace=wrap;html=1;" parent="q21tCgvyTeb9YOKEg16n-2" vertex="1">
          <mxGeometry x="203" y="900" width="207" height="80" as="geometry" />
        </mxCell>
        <mxCell id="q21tCgvyTeb9YOKEg16n-46" value="&lt;font style=&quot;font-size: 14px;&quot;&gt;S&#39;authentifier&lt;/font&gt;" style="ellipse;whiteSpace=wrap;html=1;" parent="q21tCgvyTeb9YOKEg16n-2" vertex="1">
          <mxGeometry x="580" y="580" width="153" height="80" as="geometry" />
        </mxCell>
        <mxCell id="q21tCgvyTeb9YOKEg16n-48" value="" style="endArrow=block;dashed=1;endFill=0;endSize=12;html=1;rounded=0;entryX=1;entryY=1;entryDx=0;entryDy=0;exitX=0.929;exitY=0.25;exitDx=0;exitDy=0;exitPerimeter=0;" parent="q21tCgvyTeb9YOKEg16n-2" source="q21tCgvyTeb9YOKEg16n-30" target="q21tCgvyTeb9YOKEg16n-46" edge="1">
          <mxGeometry width="160" relative="1" as="geometry">
            <mxPoint x="410" y="1070" as="sourcePoint" />
            <mxPoint x="270" y="790" as="targetPoint" />
          </mxGeometry>
        </mxCell>
        <mxCell id="q21tCgvyTeb9YOKEg16n-49" value="" style="endArrow=block;dashed=1;endFill=0;endSize=12;html=1;rounded=0;entryX=0.5;entryY=1;entryDx=0;entryDy=0;exitX=0.963;exitY=0.263;exitDx=0;exitDy=0;exitPerimeter=0;" parent="q21tCgvyTeb9YOKEg16n-2" source="q21tCgvyTeb9YOKEg16n-43" target="q21tCgvyTeb9YOKEg16n-46" edge="1">
          <mxGeometry width="160" relative="1" as="geometry">
            <mxPoint x="110" y="790" as="sourcePoint" />
            <mxPoint x="270" y="790" as="targetPoint" />
          </mxGeometry>
        </mxCell>
        <mxCell id="q21tCgvyTeb9YOKEg16n-50" value="" style="endArrow=block;dashed=1;endFill=0;endSize=12;html=1;rounded=0;entryX=0;entryY=1;entryDx=0;entryDy=0;exitX=0.94;exitY=0.221;exitDx=0;exitDy=0;exitPerimeter=0;" parent="q21tCgvyTeb9YOKEg16n-2" source="q21tCgvyTeb9YOKEg16n-25" target="q21tCgvyTeb9YOKEg16n-46" edge="1">
          <mxGeometry width="160" relative="1" as="geometry">
            <mxPoint x="110" y="790" as="sourcePoint" />
            <mxPoint x="270" y="790" as="targetPoint" />
          </mxGeometry>
        </mxCell>
        <mxCell id="q21tCgvyTeb9YOKEg16n-51" value="" style="endArrow=block;dashed=1;endFill=0;endSize=12;html=1;rounded=0;exitX=1;exitY=0.5;exitDx=0;exitDy=0;" parent="q21tCgvyTeb9YOKEg16n-2" source="q21tCgvyTeb9YOKEg16n-16" target="q21tCgvyTeb9YOKEg16n-46" edge="1">
          <mxGeometry width="160" relative="1" as="geometry">
            <mxPoint x="550" y="520" as="sourcePoint" />
            <mxPoint x="600" y="520" as="targetPoint" />
          </mxGeometry>
        </mxCell>
        <mxCell id="q21tCgvyTeb9YOKEg16n-53" value="" style="endArrow=block;dashed=1;endFill=0;endSize=12;html=1;rounded=0;entryX=0.5;entryY=0;entryDx=0;entryDy=0;exitX=1;exitY=1;exitDx=0;exitDy=0;" parent="q21tCgvyTeb9YOKEg16n-2" source="q21tCgvyTeb9YOKEg16n-6" target="q21tCgvyTeb9YOKEg16n-46" edge="1">
          <mxGeometry width="160" relative="1" as="geometry">
            <mxPoint x="447" y="270" as="sourcePoint" />
            <mxPoint x="607" y="270" as="targetPoint" />
            <Array as="points" />
          </mxGeometry>
        </mxCell>
        <mxCell id="q21tCgvyTeb9YOKEg16n-54" value="" style="endArrow=block;dashed=1;endFill=0;endSize=12;html=1;rounded=0;entryX=1;entryY=0;entryDx=0;entryDy=0;exitX=0.957;exitY=0.788;exitDx=0;exitDy=0;exitPerimeter=0;" parent="q21tCgvyTeb9YOKEg16n-2" source="q21tCgvyTeb9YOKEg16n-38" target="q21tCgvyTeb9YOKEg16n-46" edge="1">
          <mxGeometry width="160" relative="1" as="geometry">
            <mxPoint x="510" y="230" as="sourcePoint" />
            <mxPoint x="670" y="230" as="targetPoint" />
          </mxGeometry>
        </mxCell>
        <mxCell id="q21tCgvyTeb9YOKEg16n-55" value="&amp;lt;&amp;lt;includ&amp;gt;&amp;gt;" style="text;html=1;align=center;verticalAlign=middle;resizable=0;points=[];autosize=1;strokeColor=none;fillColor=none;" parent="q21tCgvyTeb9YOKEg16n-2" vertex="1">
          <mxGeometry x="630" y="430" width="80" height="30" as="geometry" />
        </mxCell>
        <mxCell id="q21tCgvyTeb9YOKEg16n-58" value="&amp;lt;&amp;lt;includ&amp;gt;&amp;gt;" style="text;html=1;align=center;verticalAlign=middle;resizable=0;points=[];autosize=1;strokeColor=none;fillColor=none;" parent="q21tCgvyTeb9YOKEg16n-2" vertex="1">
          <mxGeometry x="450" y="490" width="80" height="30" as="geometry" />
        </mxCell>
        <mxCell id="q21tCgvyTeb9YOKEg16n-61" value="&amp;lt;&amp;lt;includ&amp;gt;&amp;gt;" style="text;html=1;align=center;verticalAlign=middle;resizable=0;points=[];autosize=1;strokeColor=none;fillColor=none;" parent="q21tCgvyTeb9YOKEg16n-2" vertex="1">
          <mxGeometry x="346.5" y="850" width="80" height="30" as="geometry" />
        </mxCell>
        <mxCell id="q21tCgvyTeb9YOKEg16n-60" value="&amp;lt;&amp;lt;includ&amp;gt;&amp;gt;" style="text;html=1;align=center;verticalAlign=middle;resizable=0;points=[];autosize=1;strokeColor=none;fillColor=none;" parent="q21tCgvyTeb9YOKEg16n-2" vertex="1">
          <mxGeometry x="333" y="1010" width="80" height="30" as="geometry" />
        </mxCell>
        <mxCell id="q21tCgvyTeb9YOKEg16n-59" value="&amp;lt;&amp;lt;includ&amp;gt;&amp;gt;" style="text;html=1;align=center;verticalAlign=middle;resizable=0;points=[];autosize=1;strokeColor=none;fillColor=none;" parent="q21tCgvyTeb9YOKEg16n-2" vertex="1">
          <mxGeometry x="450" y="660" width="80" height="30" as="geometry" />
        </mxCell>
        <mxCell id="q21tCgvyTeb9YOKEg16n-56" value="&amp;lt;&amp;lt;includ&amp;gt;&amp;gt;" style="text;html=1;align=center;verticalAlign=middle;resizable=0;points=[];autosize=1;strokeColor=none;fillColor=none;" parent="q21tCgvyTeb9YOKEg16n-2" vertex="1">
          <mxGeometry x="413" y="288" width="80" height="30" as="geometry" />
        </mxCell>
        <mxCell id="q21tCgvyTeb9YOKEg16n-4" value="&lt;font style=&quot;font-size: 14px;&quot;&gt;l’agent commercial&lt;/font&gt;" style="shape=umlActor;verticalLabelPosition=bottom;verticalAlign=top;html=1;outlineConnect=0;" parent="1" vertex="1">
          <mxGeometry x="70" y="120" width="50" height="80" as="geometry" />
        </mxCell>
        <mxCell id="q21tCgvyTeb9YOKEg16n-7" value="" style="endArrow=none;html=1;rounded=0;exitX=1;exitY=0.3333333333333333;exitDx=0;exitDy=0;exitPerimeter=0;entryX=0;entryY=0.5;entryDx=0;entryDy=0;" parent="1" source="q21tCgvyTeb9YOKEg16n-4" target="q21tCgvyTeb9YOKEg16n-38" edge="1">
          <mxGeometry width="50" height="50" relative="1" as="geometry">
            <mxPoint x="390" y="420" as="sourcePoint" />
            <mxPoint x="440" y="370" as="targetPoint" />
          </mxGeometry>
        </mxCell>
        <mxCell id="q21tCgvyTeb9YOKEg16n-12" value="&lt;font style=&quot;font-size: 14px;&quot;&gt; Le chef service&lt;br/&gt;commercial&lt;/font&gt;" style="shape=umlActor;verticalLabelPosition=bottom;verticalAlign=top;html=1;outlineConnect=0;" parent="1" vertex="1">
          <mxGeometry x="60" y="780" width="50" height="80" as="geometry" />
        </mxCell>
        <mxCell id="q21tCgvyTeb9YOKEg16n-18" value="" style="endArrow=none;html=1;rounded=0;entryX=0;entryY=0.5;entryDx=0;entryDy=0;exitX=1;exitY=0.3333333333333333;exitDx=0;exitDy=0;exitPerimeter=0;" parent="1" source="q21tCgvyTeb9YOKEg16n-12" target="q21tCgvyTeb9YOKEg16n-16" edge="1">
          <mxGeometry width="50" height="50" relative="1" as="geometry">
            <mxPoint x="120" y="440" as="sourcePoint" />
            <mxPoint x="440" y="370" as="targetPoint" />
          </mxGeometry>
        </mxCell>
        <mxCell id="q21tCgvyTeb9YOKEg16n-26" value="" style="endArrow=none;html=1;rounded=0;exitX=1;exitY=0.3333333333333333;exitDx=0;exitDy=0;exitPerimeter=0;entryX=0;entryY=0.5;entryDx=0;entryDy=0;" parent="1" source="q21tCgvyTeb9YOKEg16n-12" target="q21tCgvyTeb9YOKEg16n-25" edge="1">
          <mxGeometry width="50" height="50" relative="1" as="geometry">
            <mxPoint x="390" y="730" as="sourcePoint" />
            <mxPoint x="440" y="680" as="targetPoint" />
          </mxGeometry>
        </mxCell>
        <mxCell id="q21tCgvyTeb9YOKEg16n-27" value="&lt;font style=&quot;font-size: 14px;&quot;&gt;logiciel de production&lt;/font&gt;" style="shape=umlActor;verticalLabelPosition=bottom;verticalAlign=top;html=1;outlineConnect=0;" parent="1" vertex="1">
          <mxGeometry x="1080" y="740" width="60" height="90" as="geometry" />
        </mxCell>
        <mxCell id="q21tCgvyTeb9YOKEg16n-28" value="" style="endArrow=none;html=1;rounded=0;exitX=1;exitY=0.5;exitDx=0;exitDy=0;" parent="1" source="q21tCgvyTeb9YOKEg16n-25" target="q21tCgvyTeb9YOKEg16n-27" edge="1">
          <mxGeometry width="50" height="50" relative="1" as="geometry">
            <mxPoint x="390" y="730" as="sourcePoint" />
            <mxPoint x="440" y="680" as="targetPoint" />
          </mxGeometry>
        </mxCell>
        <mxCell id="q21tCgvyTeb9YOKEg16n-31" value="" style="endArrow=none;html=1;rounded=0;exitX=1;exitY=0.3333333333333333;exitDx=0;exitDy=0;exitPerimeter=0;entryX=0;entryY=0.5;entryDx=0;entryDy=0;" parent="1" source="q21tCgvyTeb9YOKEg16n-12" target="q21tCgvyTeb9YOKEg16n-30" edge="1">
          <mxGeometry width="50" height="50" relative="1" as="geometry">
            <mxPoint x="390" y="790" as="sourcePoint" />
            <mxPoint x="440" y="740" as="targetPoint" />
          </mxGeometry>
        </mxCell>
        <mxCell id="q21tCgvyTeb9YOKEg16n-32" value="" style="endArrow=none;html=1;rounded=0;exitX=1;exitY=0.5;exitDx=0;exitDy=0;" parent="1" source="q21tCgvyTeb9YOKEg16n-30" target="q21tCgvyTeb9YOKEg16n-33" edge="1">
          <mxGeometry width="50" height="50" relative="1" as="geometry">
            <mxPoint x="390" y="790" as="sourcePoint" />
            <mxPoint x="890" y="700" as="targetPoint" />
          </mxGeometry>
        </mxCell>
        <mxCell id="q21tCgvyTeb9YOKEg16n-33" value="&lt;font style=&quot;font-size: 14px;&quot;&gt;logiciel&amp;nbsp;comptabilité&lt;/font&gt;" style="shape=umlActor;verticalLabelPosition=bottom;verticalAlign=top;html=1;outlineConnect=0;" parent="1" vertex="1">
          <mxGeometry x="1080" y="1090" width="50" height="100" as="geometry" />
        </mxCell>
        <mxCell id="q21tCgvyTeb9YOKEg16n-36" value="&lt;font style=&quot;font-size: 14px;&quot;&gt;directeur&lt;/font&gt;" style="shape=umlActor;verticalLabelPosition=bottom;verticalAlign=top;html=1;outlineConnect=0;" parent="1" vertex="1">
          <mxGeometry x="1085" y="130" width="55" height="80" as="geometry" />
        </mxCell>
        <mxCell id="q21tCgvyTeb9YOKEg16n-39" value="" style="endArrow=none;html=1;rounded=0;exitX=1;exitY=0.3333333333333333;exitDx=0;exitDy=0;exitPerimeter=0;entryX=-0.005;entryY=0.588;entryDx=0;entryDy=0;entryPerimeter=0;" parent="1" source="q21tCgvyTeb9YOKEg16n-4" target="q21tCgvyTeb9YOKEg16n-6" edge="1">
          <mxGeometry width="50" height="50" relative="1" as="geometry">
            <mxPoint x="390" y="390" as="sourcePoint" />
            <mxPoint x="440" y="340" as="targetPoint" />
          </mxGeometry>
        </mxCell>
        <mxCell id="q21tCgvyTeb9YOKEg16n-40" value="" style="endArrow=none;html=1;rounded=0;exitX=1;exitY=0.5;exitDx=0;exitDy=0;" parent="1" source="q21tCgvyTeb9YOKEg16n-38" target="q21tCgvyTeb9YOKEg16n-36" edge="1">
          <mxGeometry width="50" height="50" relative="1" as="geometry">
            <mxPoint x="390" y="390" as="sourcePoint" />
            <mxPoint x="440" y="340" as="targetPoint" />
          </mxGeometry>
        </mxCell>
        <mxCell id="q21tCgvyTeb9YOKEg16n-41" value="" style="endArrow=classic;html=1;rounded=0;exitX=0.5;exitY=0;exitDx=0;exitDy=0;exitPerimeter=0;" parent="1" source="q21tCgvyTeb9YOKEg16n-12" edge="1">
          <mxGeometry width="50" height="50" relative="1" as="geometry">
            <mxPoint x="390" y="790" as="sourcePoint" />
            <mxPoint x="80" y="240" as="targetPoint" />
          </mxGeometry>
        </mxCell>
        <mxCell id="q21tCgvyTeb9YOKEg16n-44" value="" style="endArrow=none;html=1;rounded=0;exitX=1;exitY=0.3333333333333333;exitDx=0;exitDy=0;exitPerimeter=0;entryX=0;entryY=0.5;entryDx=0;entryDy=0;" parent="1" source="q21tCgvyTeb9YOKEg16n-12" target="q21tCgvyTeb9YOKEg16n-43" edge="1">
          <mxGeometry width="50" height="50" relative="1" as="geometry">
            <mxPoint x="390" y="1000" as="sourcePoint" />
            <mxPoint x="440" y="950" as="targetPoint" />
          </mxGeometry>
        </mxCell>
        <mxCell id="q21tCgvyTeb9YOKEg16n-45" value="" style="endArrow=none;html=1;rounded=0;exitX=1;exitY=0.5;exitDx=0;exitDy=0;" parent="1" source="q21tCgvyTeb9YOKEg16n-43" target="q21tCgvyTeb9YOKEg16n-27" edge="1">
          <mxGeometry width="50" height="50" relative="1" as="geometry">
            <mxPoint x="390" y="1000" as="sourcePoint" />
            <mxPoint x="440" y="950" as="targetPoint" />
          </mxGeometry>
        </mxCell>
      </root>
    </mxGraphModel>
  </diagram>
</mxfile>
